<svg xmlns="http://www.w3.org/2000/svg" xmlns:xlink="http://www.w3.org/1999/xlink" width="500" zoomAndPan="magnify" viewBox="0 0 375 374.999991" height="500" preserveAspectRatio="xMidYMid meet" version="1.0"><defs><g/><clipPath id="5e51530755"><path d="M 98.464844 161.40625 L 134.464844 161.40625 L 134.464844 198 L 98.464844 198 Z M 98.464844 161.40625 " clip-rule="nonzero"/></clipPath><clipPath id="56d959c0ef"><rect x="0" width="83" y="0" height="44"/></clipPath></defs><g clip-path="url(#5e51530755)"><path fill="#ffffff" d="M 134.21875 196.394531 L 123.933594 175.707031 C 120.902344 178.414062 118.238281 183.167969 118.386719 187.0625 L 121.5 193.199219 C 121.609375 193.421875 121.800781 193.589844 122.035156 193.675781 L 132.996094 197.753906 C 133.832031 198.066406 134.617188 197.195312 134.21875 196.394531 Z M 115.757812 185.089844 C 115.734375 185.128906 115.707031 185.167969 115.6875 185.214844 L 111.78125 193.128906 C 111.671875 193.351562 111.476562 193.527344 111.242188 193.613281 L 100.078125 197.769531 C 99.246094 198.078125 98.464844 197.214844 98.851562 196.417969 L 115.421875 162.152344 C 115.777344 161.417969 116.824219 161.410156 117.1875 162.140625 L 123.582031 175 C 120.074219 177.503906 117.332031 181.007812 115.757812 185.089844 " fill-opacity="1" fill-rule="nonzero"/></g><g transform="matrix(1, 0, 0, 1, 134, 164)"><g clip-path="url(#56d959c0ef)"><g fill="#ffffff" fill-opacity="1"><g transform="translate(0.629683, 32.514982)"><g><path d="M 9.71875 0.21875 C 8.132812 0.21875 6.71875 -0.0351562 5.46875 -0.546875 C 4.21875 -1.066406 3.21875 -1.828125 2.46875 -2.828125 C 1.726562 -3.828125 1.335938 -5.035156 1.296875 -6.453125 L 6.890625 -6.453125 C 6.972656 -5.660156 7.25 -5.050781 7.71875 -4.625 C 8.1875 -4.207031 8.800781 -4 9.5625 -4 C 10.34375 -4 10.957031 -4.175781 11.40625 -4.53125 C 11.851562 -4.894531 12.078125 -5.394531 12.078125 -6.03125 C 12.078125 -6.5625 11.898438 -7 11.546875 -7.34375 C 11.191406 -7.695312 10.75 -7.984375 10.21875 -8.203125 C 9.695312 -8.429688 8.957031 -8.691406 8 -8.984375 C 6.601562 -9.410156 5.460938 -9.835938 4.578125 -10.265625 C 3.703125 -10.703125 2.945312 -11.335938 2.3125 -12.171875 C 1.675781 -13.015625 1.359375 -14.113281 1.359375 -15.46875 C 1.359375 -17.476562 2.082031 -19.050781 3.53125 -20.1875 C 4.988281 -21.320312 6.882812 -21.890625 9.21875 -21.890625 C 11.601562 -21.890625 13.519531 -21.320312 14.96875 -20.1875 C 16.425781 -19.050781 17.207031 -17.46875 17.3125 -15.4375 L 11.625 -15.4375 C 11.582031 -16.132812 11.320312 -16.679688 10.84375 -17.078125 C 10.375 -17.484375 9.773438 -17.6875 9.046875 -17.6875 C 8.410156 -17.6875 7.894531 -17.515625 7.5 -17.171875 C 7.113281 -16.835938 6.921875 -16.351562 6.921875 -15.71875 C 6.921875 -15.019531 7.25 -14.472656 7.90625 -14.078125 C 8.5625 -13.691406 9.585938 -13.273438 10.984375 -12.828125 C 12.367188 -12.347656 13.5 -11.894531 14.375 -11.46875 C 15.25 -11.039062 16.003906 -10.414062 16.640625 -9.59375 C 17.273438 -8.769531 17.59375 -7.710938 17.59375 -6.421875 C 17.59375 -5.191406 17.28125 -4.070312 16.65625 -3.0625 C 16.03125 -2.0625 15.117188 -1.265625 13.921875 -0.671875 C 12.734375 -0.078125 11.332031 0.21875 9.71875 0.21875 Z M 9.71875 0.21875 "/></g></g></g><g fill="#ffffff" fill-opacity="1"><g transform="translate(19.535853, 32.514982)"><g><path d="M 17.4375 -21.59375 L 17.4375 -17.375 L 11.71875 -17.375 L 11.71875 0 L 6.453125 0 L 6.453125 -17.375 L 0.734375 -17.375 L 0.734375 -21.59375 Z M 17.4375 -21.59375 "/></g></g></g><g fill="#ffffff" fill-opacity="1"><g transform="translate(37.704221, 32.514982)"><g><path d="M 12.921875 0 L 8.421875 -8.15625 L 7.171875 -8.15625 L 7.171875 0 L 1.90625 0 L 1.90625 -21.59375 L 10.734375 -21.59375 C 12.429688 -21.59375 13.878906 -21.289062 15.078125 -20.6875 C 16.273438 -20.09375 17.171875 -19.28125 17.765625 -18.25 C 18.367188 -17.21875 18.671875 -16.066406 18.671875 -14.796875 C 18.671875 -13.359375 18.265625 -12.070312 17.453125 -10.9375 C 16.640625 -9.8125 15.445312 -9.015625 13.875 -8.546875 L 18.84375 0 Z M 7.171875 -11.875 L 10.421875 -11.875 C 11.390625 -11.875 12.113281 -12.109375 12.59375 -12.578125 C 13.070312 -13.046875 13.3125 -13.710938 13.3125 -14.578125 C 13.3125 -15.398438 13.070312 -16.046875 12.59375 -16.515625 C 12.113281 -16.984375 11.390625 -17.21875 10.421875 -17.21875 L 7.171875 -17.21875 Z M 7.171875 -11.875 "/></g></g></g><g fill="#ffffff" fill-opacity="1"><g transform="translate(57.747847, 32.514982)"><g><path d="M 12.109375 0.21875 C 10.085938 0.21875 8.226562 -0.25 6.53125 -1.1875 C 4.84375 -2.132812 3.5 -3.453125 2.5 -5.140625 C 1.507812 -6.835938 1.015625 -8.742188 1.015625 -10.859375 C 1.015625 -12.960938 1.507812 -14.851562 2.5 -16.53125 C 3.5 -18.21875 4.84375 -19.53125 6.53125 -20.46875 C 8.226562 -21.414062 10.085938 -21.890625 12.109375 -21.890625 C 14.140625 -21.890625 16 -21.414062 17.6875 -20.46875 C 19.382812 -19.53125 20.71875 -18.21875 21.6875 -16.53125 C 22.664062 -14.851562 23.15625 -12.960938 23.15625 -10.859375 C 23.15625 -8.742188 22.660156 -6.835938 21.671875 -5.140625 C 20.691406 -3.453125 19.359375 -2.132812 17.671875 -1.1875 C 15.992188 -0.25 14.140625 0.21875 12.109375 0.21875 Z M 12.109375 -4.578125 C 13.835938 -4.578125 15.21875 -5.148438 16.25 -6.296875 C 17.28125 -7.453125 17.796875 -8.972656 17.796875 -10.859375 C 17.796875 -12.765625 17.28125 -14.285156 16.25 -15.421875 C 15.21875 -16.554688 13.835938 -17.125 12.109375 -17.125 C 10.367188 -17.125 8.976562 -16.5625 7.9375 -15.4375 C 6.90625 -14.3125 6.390625 -12.785156 6.390625 -10.859375 C 6.390625 -8.953125 6.90625 -7.425781 7.9375 -6.28125 C 8.976562 -5.144531 10.367188 -4.578125 12.109375 -4.578125 Z M 12.109375 -4.578125 "/></g></g></g></g></g></svg>