<svg xmlns="http://www.w3.org/2000/svg" xmlns:xlink="http://www.w3.org/1999/xlink" width="500" zoomAndPan="magnify" viewBox="0 0 375 374.999991" height="500" preserveAspectRatio="xMidYMid meet" version="1.0"><defs><clipPath id="c116959c24"><path d="M 145.101562 142 L 214.851562 142 L 214.851562 212.894531 L 145.101562 212.894531 Z M 145.101562 142 " clip-rule="nonzero"/></clipPath></defs><g clip-path="url(#c116959c24)"><path fill="#ffffff" d="M 214.183594 209.253906 L 194.308594 169.277344 C 188.457031 174.511719 183.304688 183.695312 183.59375 191.21875 L 189.605469 203.078125 C 189.824219 203.503906 190.191406 203.832031 190.636719 204 L 211.820312 211.878906 C 213.433594 212.480469 214.949219 210.796875 214.183594 209.253906 Z M 178.515625 187.40625 C 178.464844 187.480469 178.417969 187.5625 178.375 187.648438 L 170.828125 202.941406 C 170.613281 203.375 170.242188 203.710938 169.789062 203.882812 L 148.214844 211.90625 C 146.613281 212.503906 145.097656 210.839844 145.84375 209.300781 L 177.867188 143.085938 C 178.554688 141.664062 180.574219 141.652344 181.277344 143.066406 L 193.628906 167.910156 C 186.855469 172.753906 181.550781 179.519531 178.515625 187.40625 " fill-opacity="1" fill-rule="nonzero"/></g></svg>