<svg xmlns="http://www.w3.org/2000/svg" xmlns:xlink="http://www.w3.org/1999/xlink" width="500" zoomAndPan="magnify" viewBox="0 0 375 374.999991" height="500" preserveAspectRatio="xMidYMid meet" version="1.0"><defs><g/><clipPath id="c9479c29c5"><path d="M 209 169 L 255 169 L 255 238.371094 L 209 238.371094 Z M 209 169 " clip-rule="nonzero"/></clipPath><clipPath id="2000e3c0a0"><path d="M 121 115 L 234 115 L 234 238.371094 L 121 238.371094 Z M 121 115 " clip-rule="nonzero"/></clipPath><clipPath id="d83889850a"><rect x="0" width="32" y="0" height="11"/></clipPath></defs><g clip-path="url(#c9479c29c5)"><path fill="#e7e3dd" d="M 252.496094 221.472656 L 222.71875 169.90625 L 209.589844 192.671875 L 232.773438 232.84375 C 234.871094 236.476562 238.699219 238.542969 242.636719 238.542969 C 244.5625 238.542969 246.519531 238.039062 248.308594 237.007812 C 253.78125 233.847656 255.625 226.921875 252.496094 221.472656 Z M 252.496094 221.472656 " fill-opacity="1" fill-rule="nonzero"/></g><g clip-path="url(#2000e3c0a0)"><path fill="#e7e3dd" d="M 231.601562 141.578125 L 218.976562 163.453125 L 205.816406 186.21875 L 185.480469 221.445312 C 179.390625 232.003906 168.019531 238.570312 155.839844 238.570312 C 143.464844 238.570312 132.375 232.171875 126.171875 221.445312 C 119.96875 210.746094 119.96875 197.925781 126.171875 187.195312 L 161.761719 125.597656 C 165.449219 119.199219 172.070312 115.375 179.445312 115.375 C 186.820312 115.375 193.441406 119.199219 197.15625 125.597656 L 198.441406 127.832031 L 202.128906 134.203125 L 188.972656 156.96875 L 179.445312 140.488281 L 145.921875 198.566406 C 142.933594 203.734375 144.917969 208.316406 145.921875 210.046875 C 146.929688 211.78125 149.890625 215.804688 155.867188 215.804688 C 159.945312 215.804688 163.773438 213.597656 165.785156 210.046875 L 192.6875 163.453125 L 205.84375 140.683594 L 211.878906 130.207031 C 215.035156 124.761719 221.992188 122.886719 227.441406 126.046875 C 232.886719 129.175781 234.757812 136.128906 231.601562 141.578125 Z M 231.601562 141.578125 " fill-opacity="1" fill-rule="nonzero"/></g><path fill="#e7e3dd" d="M 226.070312 114.535156 C 232.160156 128.253906 252.46875 119.84375 247.105469 105.820312 C 240.988281 92.132812 220.679688 100.539062 226.070312 114.535156 Z M 226.070312 114.535156 " fill-opacity="1" fill-rule="nonzero"/><g transform="matrix(1, 0, 0, 1, 224, 255)"><g clip-path="url(#d83889850a)"><g fill="#e7e3dd" fill-opacity="1"><g transform="translate(1.102899, 8.534336)"><g><path d="M 0.625 -5.015625 L 2.1875 -5.015625 C 2.863281 -5.015625 3.367188 -4.921875 3.703125 -4.734375 C 4.046875 -4.546875 4.21875 -4.21875 4.21875 -3.75 C 4.21875 -3.5625 4.1875 -3.390625 4.125 -3.234375 C 4.070312 -3.078125 3.988281 -2.945312 3.875 -2.84375 C 3.757812 -2.75 3.617188 -2.691406 3.453125 -2.671875 L 3.453125 -2.625 C 3.617188 -2.59375 3.769531 -2.535156 3.90625 -2.453125 C 4.039062 -2.367188 4.148438 -2.242188 4.234375 -2.078125 C 4.316406 -1.921875 4.359375 -1.710938 4.359375 -1.453125 C 4.359375 -1.148438 4.28125 -0.890625 4.125 -0.671875 C 3.976562 -0.453125 3.765625 -0.285156 3.484375 -0.171875 C 3.210938 -0.0546875 2.890625 0 2.515625 0 L 0.625 0 Z M 1.703125 -3.03125 L 2.3125 -3.03125 C 2.625 -3.03125 2.835938 -3.078125 2.953125 -3.171875 C 3.078125 -3.273438 3.140625 -3.421875 3.140625 -3.609375 C 3.140625 -3.796875 3.066406 -3.929688 2.921875 -4.015625 C 2.785156 -4.097656 2.5625 -4.140625 2.25 -4.140625 L 1.703125 -4.140625 Z M 1.703125 -2.1875 L 1.703125 -0.875 L 2.390625 -0.875 C 2.710938 -0.875 2.9375 -0.9375 3.0625 -1.0625 C 3.1875 -1.1875 3.25 -1.351562 3.25 -1.5625 C 3.25 -1.6875 3.21875 -1.796875 3.15625 -1.890625 C 3.101562 -1.984375 3.007812 -2.054688 2.875 -2.109375 C 2.75 -2.160156 2.578125 -2.1875 2.359375 -2.1875 Z M 1.703125 -2.1875 "/></g></g></g><g fill="#e7e3dd" fill-opacity="1"><g transform="translate(5.463644, 8.534336)"><g><path d="M 3.703125 0 L 3.34375 -1.1875 L 1.515625 -1.1875 L 1.140625 0 L 0 0 L 1.765625 -5.046875 L 3.078125 -5.046875 L 4.84375 0 Z M 3.09375 -2.09375 L 2.71875 -3.25 C 2.695312 -3.332031 2.664062 -3.429688 2.625 -3.546875 C 2.59375 -3.671875 2.554688 -3.796875 2.515625 -3.921875 C 2.484375 -4.054688 2.453125 -4.171875 2.421875 -4.265625 C 2.398438 -4.171875 2.367188 -4.050781 2.328125 -3.90625 C 2.285156 -3.769531 2.242188 -3.640625 2.203125 -3.515625 C 2.171875 -3.390625 2.148438 -3.300781 2.140625 -3.25 L 1.78125 -2.09375 Z M 3.09375 -2.09375 "/></g></g></g><g fill="#e7e3dd" fill-opacity="1"><g transform="translate(9.95128, 8.534336)"><g><path d="M 3.59375 -1.390625 C 3.59375 -1.097656 3.519531 -0.835938 3.375 -0.609375 C 3.226562 -0.390625 3.015625 -0.222656 2.734375 -0.109375 C 2.460938 0.00390625 2.132812 0.0625 1.75 0.0625 C 1.570312 0.0625 1.398438 0.0507812 1.234375 0.03125 C 1.066406 0.0078125 0.90625 -0.0195312 0.75 -0.0625 C 0.601562 -0.113281 0.460938 -0.171875 0.328125 -0.234375 L 0.328125 -1.21875 C 0.566406 -1.113281 0.8125 -1.019531 1.0625 -0.9375 C 1.320312 -0.851562 1.578125 -0.8125 1.828125 -0.8125 C 2.003906 -0.8125 2.144531 -0.832031 2.25 -0.875 C 2.351562 -0.925781 2.425781 -0.988281 2.46875 -1.0625 C 2.519531 -1.144531 2.546875 -1.238281 2.546875 -1.34375 C 2.546875 -1.46875 2.503906 -1.570312 2.421875 -1.65625 C 2.335938 -1.75 2.222656 -1.832031 2.078125 -1.90625 C 1.929688 -1.988281 1.765625 -2.078125 1.578125 -2.171875 C 1.460938 -2.222656 1.332031 -2.285156 1.1875 -2.359375 C 1.050781 -2.441406 0.921875 -2.539062 0.796875 -2.65625 C 0.679688 -2.769531 0.582031 -2.90625 0.5 -3.0625 C 0.414062 -3.226562 0.375 -3.425781 0.375 -3.65625 C 0.375 -3.957031 0.441406 -4.210938 0.578125 -4.421875 C 0.722656 -4.640625 0.921875 -4.804688 1.171875 -4.921875 C 1.429688 -5.035156 1.734375 -5.09375 2.078125 -5.09375 C 2.335938 -5.09375 2.585938 -5.0625 2.828125 -5 C 3.066406 -4.9375 3.316406 -4.847656 3.578125 -4.734375 L 3.234375 -3.90625 C 2.992188 -4 2.78125 -4.070312 2.59375 -4.125 C 2.414062 -4.175781 2.234375 -4.203125 2.046875 -4.203125 C 1.910156 -4.203125 1.796875 -4.179688 1.703125 -4.140625 C 1.609375 -4.097656 1.535156 -4.035156 1.484375 -3.953125 C 1.441406 -3.878906 1.421875 -3.796875 1.421875 -3.703125 C 1.421875 -3.578125 1.453125 -3.472656 1.515625 -3.390625 C 1.585938 -3.316406 1.691406 -3.238281 1.828125 -3.15625 C 1.972656 -3.082031 2.15625 -2.992188 2.375 -2.890625 C 2.625 -2.773438 2.835938 -2.648438 3.015625 -2.515625 C 3.203125 -2.390625 3.34375 -2.234375 3.4375 -2.046875 C 3.539062 -1.867188 3.59375 -1.648438 3.59375 -1.390625 Z M 3.59375 -1.390625 "/></g></g></g><g fill="#e7e3dd" fill-opacity="1"><g transform="translate(13.461517, 8.534336)"><g><path d="M 3.515625 0 L 0.625 0 L 0.625 -5.015625 L 3.515625 -5.015625 L 3.515625 -4.140625 L 1.703125 -4.140625 L 1.703125 -3.046875 L 3.390625 -3.046875 L 3.390625 -2.171875 L 1.703125 -2.171875 L 1.703125 -0.875 L 3.515625 -0.875 Z M 3.515625 0 "/></g></g></g><g fill="#e7e3dd" fill-opacity="1"><g transform="translate(17.036915, 8.534336)"><g><path d="M 4.796875 -2.5625 C 4.796875 -1.988281 4.6875 -1.515625 4.46875 -1.140625 C 4.25 -0.765625 3.9375 -0.476562 3.53125 -0.28125 C 3.125 -0.09375 2.628906 0 2.046875 0 L 0.625 0 L 0.625 -5.015625 L 2.203125 -5.015625 C 2.734375 -5.015625 3.191406 -4.921875 3.578125 -4.734375 C 3.960938 -4.546875 4.257812 -4.269531 4.46875 -3.90625 C 4.6875 -3.539062 4.796875 -3.09375 4.796875 -2.5625 Z M 3.6875 -2.53125 C 3.6875 -2.90625 3.628906 -3.207031 3.515625 -3.4375 C 3.410156 -3.675781 3.253906 -3.851562 3.046875 -3.96875 C 2.835938 -4.082031 2.578125 -4.140625 2.265625 -4.140625 L 1.703125 -4.140625 L 1.703125 -0.875 L 2.15625 -0.875 C 2.675781 -0.875 3.0625 -1.007812 3.3125 -1.28125 C 3.5625 -1.5625 3.6875 -1.976562 3.6875 -2.53125 Z M 3.6875 -2.53125 "/></g></g></g><g fill="#e7e3dd" fill-opacity="1"><g transform="translate(21.877785, 8.534336)"><g/></g></g><g fill="#e7e3dd" fill-opacity="1"><g transform="translate(23.344061, 8.534336)"><g><path d="M 0.625 0 L 0.625 -5.015625 L 1.703125 -5.015625 L 1.703125 0 Z M 0.625 0 "/></g></g></g><g fill="#e7e3dd" fill-opacity="1"><g transform="translate(25.311038, 8.534336)"><g><path d="M 5.078125 0 L 3.734375 0 L 1.546875 -3.796875 L 1.515625 -3.796875 C 1.523438 -3.640625 1.53125 -3.476562 1.53125 -3.3125 C 1.539062 -3.15625 1.550781 -3 1.5625 -2.84375 C 1.570312 -2.6875 1.578125 -2.523438 1.578125 -2.359375 L 1.578125 0 L 0.625 0 L 0.625 -5.015625 L 1.96875 -5.015625 L 4.15625 -1.265625 L 4.171875 -1.265625 C 4.171875 -1.421875 4.164062 -1.570312 4.15625 -1.71875 C 4.15625 -1.875 4.148438 -2.023438 4.140625 -2.171875 C 4.140625 -2.328125 4.132812 -2.484375 4.125 -2.640625 L 4.125 -5.015625 L 5.078125 -5.015625 Z M 5.078125 0 "/></g></g></g></g></g></svg>